<?xml version="1.0" encoding="UTF-8"?>
<svg version="1.1" xmlns="http://www.w3.org/2000/svg" width="75" height="81">
<path d="M0 0 C24.75 0 49.5 0 75 0 C75 26.73 75 53.46 75 81 C50.25 81 25.5 81 0 81 C0 54.27 0 27.54 0 0 Z " fill="#EDEEEE" transform="translate(0,0)"/>
<path d="M0 0 C1.65 0 3.3 0 5 0 C8.25968109 9.41002278 8.25968109 9.41002278 9 14 C9.845625 13.505 10.69125 13.01 11.5625 12.5 C15.41027285 10.82097185 17.84491725 10.61527012 22 11 C24.4375 12 24.4375 12 26 13 C26.33 11.02 26.66 9.04 27 7 C27.99 7 28.98 7 30 7 C29.84660156 7.57105469 29.69320312 8.14210938 29.53515625 8.73046875 C28.07017125 16.34596928 30.59832208 20.94790043 34.43359375 27.3125 C36 30 36 30 36 32 C36.70125 32.268125 37.4025 32.53625 38.125 32.8125 C41.1649824 34.0681449 44.0727774 35.50235123 47 37 C47.309375 36.05125 47.61875 35.1025 47.9375 34.125 C49 31 49 31 50 29 C51.875 29.125 51.875 29.125 54 30 C55.7158753 33.43175059 56.25368542 35.16646219 55.125 38.875 C54.75375 39.57625 54.3825 40.2775 54 41 C54.66 41.66 55.32 42.32 56 43 C55.9375 45 55.9375 45 55 47 C46.18157088 51.32802161 34.78596084 50.18166507 25.1875 50.1875 C23.56811523 50.20586914 23.56811523 50.20586914 21.91601562 50.22460938 C8.58649627 50.24912719 8.58649627 50.24912719 3.125 45.5 C-0.55247592 41.17355775 -0.34628755 37.49228164 0 32 C0.54597465 28.30636282 1.23502351 24.65412878 2 21 C3.32 20.67 4.64 20.34 6 20 C5.01 19.34 4.02 18.68 3 18 C3.99 17.34 4.98 16.68 6 16 C5.38144369 14.3725363 4.75492695 12.74809644 4.125 11.125 C3.77695312 10.22007813 3.42890625 9.31515625 3.0703125 8.3828125 C2.11469105 5.87782993 2.11469105 5.87782993 0 4 C0 2.68 0 1.36 0 0 Z " fill="#DBBF00" transform="translate(13,28)"/>
<path d="M0 0 C3.38627501 1.18125872 5.76769216 0.72709608 9.26953125 0.234375 C18.91318093 -0.94965953 18.91318093 -0.94965953 22.6875 0.9375 C23.3125 4 23.3125 4 23.6875 6.9375 C24.63625 6.73125 25.585 6.525 26.5625 6.3125 C28.109375 6.126875 28.109375 6.126875 29.6875 5.9375 C30.3475 6.5975 31.0075 7.2575 31.6875 7.9375 C34.00515729 8.65677295 36.33845874 9.3284893 38.6875 9.9375 C37.73704384 13.4541878 36.99616369 14.72704749 33.9375 16.8125 C30.29038278 18.07496365 28.39767218 17.69639886 24.6875 16.9375 C24.0275 17.5975 23.3675 18.2575 22.6875 18.9375 C20.0625 19.0625 20.0625 19.0625 17.6875 18.9375 C17.1925 20.4225 17.1925 20.4225 16.6875 21.9375 C13.6875 20.9375 13.6875 20.9375 11.6875 17.9375 C11.0275 18.5975 10.3675 19.2575 9.6875 19.9375 C7.8125 20.203125 7.8125 20.203125 5.6875 20.1875 C4.635625 20.19523437 4.635625 20.19523437 3.5625 20.203125 C1.6875 19.9375 1.6875 19.9375 -0.3125 17.9375 C-3.00089385 17.66758094 -5.60391936 17.85012643 -8.3125 17.9375 C-8.6425 16.9475 -8.9725 15.9575 -9.3125 14.9375 C-12.6125 14.9375 -15.9125 14.9375 -19.3125 14.9375 C-19.9725 13.6175 -20.6325 12.2975 -21.3125 10.9375 C-20.3225 10.6075 -19.3325 10.2775 -18.3125 9.9375 C-17.9825 8.9475 -17.6525 7.9575 -17.3125 6.9375 C-16.6525 6.6075 -15.9925 6.2775 -15.3125 5.9375 C-14.9103125 4.7309375 -14.9103125 4.7309375 -14.5 3.5 C-13.3125 0.9375 -13.3125 0.9375 -11.0625 -0.375 C-7.07079037 -1.37292741 -3.80625224 -1.7488186 0 0 Z " fill="#838383" transform="translate(28.3125,11.0625)"/>
<path d="M0 0 C2 3 2 3 2.8125 5.5625 C3.77943612 8.17481889 3.77943612 8.17481889 6.25 9.125 C7.61125 9.558125 7.61125 9.558125 9 10 C11.00751815 10.98482022 13.00934459 11.98152514 15 13 C14.4740625 13.804375 14.4740625 13.804375 13.9375 14.625 C12.71253066 17.72825567 13.36875295 19.77755003 14 23 C-15.49990356 24.96200726 -15.49990356 24.96200726 -25 22 C-27.58538649 19.55731342 -28.82624603 18.02020677 -29.42578125 14.5 C-29.38839844 13.675 -29.35101563 12.85 -29.3125 12 C-29.27769531 11.13632813 -29.24289063 10.27265625 -29.20703125 9.3828125 C-28.9881375 6.8634693 -28.65226212 4.44598294 -28 2 C-26.35 1.67 -24.7 1.34 -23 1 C-22.505 1.78375 -22.01 2.5675 -21.5 3.375 C-18.14255763 6.90031449 -15.72708251 7.13336821 -11 8 C-10.67 6.35 -10.34 4.7 -10 3 C-7.98177083 3.09765625 -5.96354167 3.1953125 -3.9453125 3.29296875 C-3.30335937 3.19628906 -2.66140625 3.09960938 -2 3 C-1.34 2.01 -0.68 1.02 0 0 Z " fill="#EDC600" transform="translate(44,53)"/>
<path d="M0 0 C2.64 0 5.28 0 8 0 C8.33 0.66 8.66 1.32 9 2 C11.97 2 14.94 2 18 2 C18.33 2.66 18.66 3.32 19 4 C20.8871875 4.061875 20.8871875 4.061875 22.8125 4.125 C23.52019531 4.14820313 24.22789063 4.17140625 24.95703125 4.1953125 C27.31359719 4.13254462 27.31359719 4.13254462 30 2 C30.556875 2.78375 31.11375 3.5675 31.6875 4.375 C34.22523768 7.2556752 35.37702504 7.92505138 39 9 C41.64607209 9.13710218 44.17469013 9.19062972 46.8125 9.125 C47.50537109 9.11597656 48.19824219 9.10695313 48.91210938 9.09765625 C50.60822395 9.07426157 52.30415871 9.03839641 54 9 C54.66 10.32 55.32 11.64 56 13 C51.05 12.01 51.05 12.01 46 11 C45.85484003 18.03525347 45.85484003 18.03525347 48.625 24.21875 C50.5218663 26.06812205 50.5218663 26.06812205 52.50390625 27.66015625 C52.99761719 28.10230469 53.49132812 28.54445313 54 29 C54 29.66 54 30.32 54 31 C53.34 31 52.68 31 52 31 C51.690625 31.94875 51.38125 32.8975 51.0625 33.875 C50 37 50 37 49 39 C42.33376283 36.98462597 38.21546122 35.15522052 34.6640625 28.90844727 C34.32117187 28.25803467 33.97828125 27.60762207 33.625 26.9375 C33.26921875 26.27226318 32.9134375 25.60702637 32.546875 24.92163086 C29.8057021 19.41869969 29.19516672 14.99261051 31 9 C28.89767656 11.8684413 28.89767656 11.8684413 28 15 C27.484375 14.835 26.96875 14.67 26.4375 14.5 C23.21876586 13.83974684 20.27722861 13.82124208 17 14 C16.01 14.66 15.02 15.32 14 16 C13.01 16 12.02 16 11 16 C6.40774487 6.58997722 6.40774487 6.58997722 7 2 C4.69 1.67 2.38 1.34 0 1 C0 0.67 0 0.34 0 0 Z " fill="#E8EDED" transform="translate(11,26)"/>
<path d="M0 0 C2.55375615 3.17494007 4.37447153 6.48103661 6.1875 10.125 C6.71730469 11.17945313 7.24710938 12.23390625 7.79296875 13.3203125 C9 16 9 16 9 18 C9.70125 18.268125 10.4025 18.53625 11.125 18.8125 C14.1649824 20.0681449 17.0727774 21.50235123 20 23 C20.309375 22.05125 20.61875 21.1025 20.9375 20.125 C22 17 22 17 23 15 C24.875 15.125 24.875 15.125 27 16 C28.7158753 19.43175059 29.25368542 21.16646219 28.125 24.875 C27.75375 25.57625 27.3825 26.2775 27 27 C27.66 27.66 28.32 28.32 29 29 C28.9375 31 28.9375 31 28 33 C19.18157088 37.32802161 7.78596084 36.18166507 -1.8125 36.1875 C-3.43188477 36.20586914 -3.43188477 36.20586914 -5.08398438 36.22460938 C-10.79137299 36.23510733 -15.61721939 35.9427154 -21 34 C-17.10083389 32.6367954 -13.34208741 33.16035355 -9.3125 33.5 C-0.46435923 34.14936044 8.16984991 33.71834763 17 33 C16.79375 32.236875 16.5875 31.47375 16.375 30.6875 C16 28 16 28 18 25 C17.32453125 24.63648437 16.6490625 24.27296875 15.953125 23.8984375 C10.54900558 20.85276326 6.90096197 18.53820012 4 13 C3.34 13.66 2.68 14.32 2 15 C-1 15.25 -1 15.25 -4 15 C-6 13 -6 13 -6.25 10.5 C-6 8 -6 8 -4 6 C-3.01 5.67 -2.02 5.34 -1 5 C-2.32 4.67 -3.64 4.34 -5 4 C-3.35 3.67 -1.7 3.34 0 3 C0 2.01 0 1.02 0 0 Z " fill="#687558" transform="translate(40,42)"/>
<path d="M0 0 C0.66 0 1.32 0 2 0 C2.33 1.65 2.66 3.3 3 5 C4.2065625 4.7215625 4.2065625 4.7215625 5.4375 4.4375 C6.7059375 4.2209375 6.7059375 4.2209375 8 4 C8.33 4.33 8.66 4.66 9 5 C13.09943415 5.33044636 13.09943415 5.33044636 16.84765625 3.92578125 C19.78768784 2.66119416 21.54578223 3.2696195 24.625 4 C27.44642973 4.71957517 27.44642973 4.71957517 30 5 C30.66 4.34 31.32 3.68 32 3 C35.57539179 2.16320618 37.47955362 1.82651787 41 3 C41 3.66 41 4.32 41 5 C41.99 5 42.98 5 44 5 C44 5.66 44 6.32 44 7 C39.85479639 9.07260181 37.47933209 8.7963257 33 8 C32.34 8.66 31.68 9.32 31 10 C28.375 10.125 28.375 10.125 26 10 C25.67 10.99 25.34 11.98 25 13 C22 12 22 12 20 9 C19.34 9.66 18.68 10.32 18 11 C16.125 11.265625 16.125 11.265625 14 11.25 C13.29875 11.25515625 12.5975 11.2603125 11.875 11.265625 C10 11 10 11 8 9 C5.31160615 8.73008094 2.70858064 8.91262643 0 9 C-0.33 8.01 -0.66 7.02 -1 6 C-4.3 6 -7.6 6 -11 6 C-11.66 4.68 -12.32 3.36 -13 2 C-12.39671875 2.10699219 -11.7934375 2.21398437 -11.171875 2.32421875 C-6.16573478 3.22665562 -6.16573478 3.22665562 -1.5625 1.5625 C-1.046875 1.046875 -0.53125 0.53125 0 0 Z " fill="#4C4C4C" transform="translate(20,20)"/>
<path d="M0 0 C2.64 0 5.28 0 8 0 C8.33 0.66 8.66 1.32 9 2 C11.97 2 14.94 2 18 2 C18.33 2.66 18.66 3.32 19 4 C20.8871875 4.061875 20.8871875 4.061875 22.8125 4.125 C23.52019531 4.14820313 24.22789063 4.17140625 24.95703125 4.1953125 C27.31359719 4.13254462 27.31359719 4.13254462 30 2 C31.71050559 6.97601626 30.00885647 10.42616295 28 15 C27.41347656 14.83886719 26.82695313 14.67773438 26.22265625 14.51171875 C23.08516547 13.78937904 20.20657046 13.82509616 17 14 C16.01 14.66 15.02 15.32 14 16 C13.01 16 12.02 16 11 16 C6.40774487 6.58997722 6.40774487 6.58997722 7 2 C4.69 1.67 2.38 1.34 0 1 C0 0.67 0 0.34 0 0 Z " fill="#D5E6CD" transform="translate(11,26)"/>
<path d="M0 0 C0.78375 0.474375 1.5675 0.94875 2.375 1.4375 C6.66774925 3.99270789 9.71099452 4.1214318 14.625 4.0625 C15.33140625 4.05798828 16.0378125 4.05347656 16.765625 4.04882812 C18.51045275 4.03703875 20.255237 4.01910324 22 4 C22.66 5.32 23.32 6.64 24 8 C20.7 7.34 17.4 6.68 14 6 C13.85484003 13.03525347 13.85484003 13.03525347 16.625 19.21875 C18.5218663 21.06812205 18.5218663 21.06812205 20.50390625 22.66015625 C20.99761719 23.10230469 21.49132812 23.54445313 22 24 C22 24.66 22 25.32 22 26 C21.34 26 20.68 26 20 26 C19.690625 26.94875 19.38125 27.8975 19.0625 28.875 C18 32 18 32 17 34 C11.25 32.125 11.25 32.125 9 31 C9.75912409 24.54744526 9.75912409 24.54744526 11.03125 21.65625 C12.17814056 18.51155008 12.19832838 16.02394138 12.125 12.6875 C12.10695313 11.61886719 12.08890625 10.55023438 12.0703125 9.44921875 C12.04710937 8.64097656 12.02390625 7.83273438 12 7 C9.03 6.67 6.06 6.34 3 6 C3 8.64 3 11.28 3 14 C2.34 14 1.68 14 1 14 C0.66307215 12.39658445 0.33058907 10.79223445 0 9.1875 C-0.185625 8.29417969 -0.37125 7.40085937 -0.5625 6.48046875 C-1 4 -1 4 -1 1 C-0.67 0.67 -0.34 0.34 0 0 Z " fill="#9DF2F9" transform="translate(43,31)"/>
<path d="M0 0 C1.65 0 3.3 0 5 0 C8.25968109 9.41002278 8.25968109 9.41002278 9 14 C9.845625 13.505 10.69125 13.01 11.5625 12.5 C15.41027285 10.82097185 17.84491725 10.61527012 22 11 C24.4375 12 24.4375 12 26 13 C25.67 13.66 25.34 14.32 25 15 C24.484375 14.649375 23.96875 14.29875 23.4375 13.9375 C19.2157761 12.31376004 15.37424631 13.64150096 11.125 14.75 C8.7784487 15.82831992 8.7784487 15.82831992 8.125 18.375 C7.87301547 20.95182211 7.87301547 20.95182211 8.5625 23.1875 C8.706875 23.785625 8.85125 24.38375 9 25 C8.34 25.66 7.68 26.32 7 27 C5.68 27 4.36 27 3 27 C2.91860858 29.39652528 2.85932991 31.79025436 2.8125 34.1875 C2.78736328 34.86103516 2.76222656 35.53457031 2.73632812 36.22851562 C2.67076522 40.70864748 3.33256351 43.39440999 6 47 C3.58694639 46.03477856 2.26012878 45.42475573 0.8828125 43.17578125 C-1.90430459 36.30664754 0.54330888 27.95830134 2 21 C3.32 20.67 4.64 20.34 6 20 C5.01 19.34 4.02 18.68 3 18 C3.99 17.34 4.98 16.68 6 16 C5.38144369 14.3725363 4.75492695 12.74809644 4.125 11.125 C3.77695312 10.22007813 3.42890625 9.31515625 3.0703125 8.3828125 C2.11469105 5.87782993 2.11469105 5.87782993 0 4 C0 2.68 0 1.36 0 0 Z " fill="#40401B" transform="translate(13,28)"/>
<path d="M0 0 C1.19109375 -0.00386719 1.19109375 -0.00386719 2.40625 -0.0078125 C4.5 0.125 4.5 0.125 6.5 1.125 C7.125 4.1875 7.125 4.1875 7.5 7.125 C8.44875 6.91875 9.3975 6.7125 10.375 6.5 C11.921875 6.314375 11.921875 6.314375 13.5 6.125 C14.16 6.785 14.82 7.445 15.5 8.125 C17.81765729 8.84427295 20.15095874 9.5159893 22.5 10.125 C21.84 11.775 21.18 13.425 20.5 15.125 C19.18 14.795 17.86 14.465 16.5 14.125 C16.5 13.465 16.5 12.805 16.5 12.125 C15.4275 12.16625 14.355 12.2075 13.25 12.25 C9.5 12.125 9.5 12.125 7.4375 11.0625 C4.60664949 9.69273363 2.48510554 10.44656692 -0.5 11.125 C-0.5 10.465 -0.5 9.805 -0.5 9.125 C0.82 8.795 2.14 8.465 3.5 8.125 C3.17 7.465 2.84 6.805 2.5 6.125 C1.4171875 6.186875 1.4171875 6.186875 0.3125 6.25 C-2.70729369 6.11578695 -4.76935729 5.37329381 -7.5 4.125 C-7.17 3.135 -6.84 2.145 -6.5 1.125 C-4.13386544 -0.05806728 -2.63219264 -0.00854608 0 0 Z " fill="#8F8F8F" transform="translate(44.5,10.875)"/>
<path d="M0 0 C0 0.66 0 1.32 0 2 C0.99 2 1.98 2 3 2 C3 2.66 3 3.32 3 4 C-1.14520361 6.07260181 -3.52066791 5.7963257 -8 5 C-8.66 5.66 -9.32 6.32 -10 7 C-12.625 7.125 -12.625 7.125 -15 7 C-15.33 7.99 -15.66 8.98 -16 10 C-19 9 -19 9 -21 6 C-21.99 6.66 -22.98 7.32 -24 8 C-24.33 6.35 -24.66 4.7 -25 3 C-23.35 3 -21.7 3 -20 3 C-20.33 2.34 -20.66 1.68 -21 1 C-19.95199219 1.14308594 -19.95199219 1.14308594 -18.8828125 1.2890625 C-17.97273438 1.39992188 -17.06265625 1.51078125 -16.125 1.625 C-14.76761719 1.79902344 -14.76761719 1.79902344 -13.3828125 1.9765625 C-12.59648438 1.98429687 -11.81015625 1.99203125 -11 2 C-10.34 1.34 -9.68 0.68 -9 0 C-5.7295226 -1.24052591 -3.35038257 -0.83759564 0 0 Z " fill="#4E5352" transform="translate(61,23)"/>
<path d="M0 0 C2.55375615 3.17494007 4.37447153 6.48103661 6.1875 10.125 C6.71730469 11.17945313 7.24710938 12.23390625 7.79296875 13.3203125 C9 16 9 16 9 18 C9.721875 18.268125 10.44375 18.53625 11.1875 18.8125 C13.97590126 19.98982498 16.44095724 21.39145884 19 23 C18.34 23.33 17.68 23.66 17 24 C10.98146477 21.66462243 7.03001065 18.66480252 4 13 C3.34 13.66 2.68 14.32 2 15 C-1 15.25 -1 15.25 -4 15 C-6 13 -6 13 -6.25 10.5 C-6 8 -6 8 -4 6 C-3.01 5.67 -2.02 5.34 -1 5 C-2.32 4.67 -3.64 4.34 -5 4 C-3.35 3.67 -1.7 3.34 0 3 C0 2.01 0 1.02 0 0 Z " fill="#2C291A" transform="translate(40,42)"/>
<path d="M0 0 C0.66 0.33 1.32 0.66 2 1 C1.40075776 5.19469571 0.42500059 9.00999834 -1 13 C-1.515625 12.835 -2.03125 12.67 -2.5625 12.5 C-5.78123414 11.83974684 -8.72277139 11.82124208 -12 12 C-12.99 12.66 -13.98 13.32 -15 14 C-15.99 14 -16.98 14 -18 14 C-18 13.01 -18 12.02 -18 11 C-17.01 11 -16.02 11 -15 11 C-15 9.35 -15 7.7 -15 6 C-12.69 6.33 -10.38 6.66 -8 7 C-7.67 6.01 -7.34 5.02 -7 4 C-5.03384339 2.9349985 -3.03273074 1.93166826 -1 1 C-0.67 0.67 -0.34 0.34 0 0 Z " fill="#E6E7E5" transform="translate(40,28)"/>
<path d="M0 0 C2.31 1.98 4.62 3.96 7 6 C5.68 8.97 4.36 11.94 3 15 C0.97954558 14.39816251 -1.02111039 13.72693904 -3 13 C-4 11 -4 11 -3.22265625 8.3984375 C-2.83980469 7.40070312 -2.45695312 6.40296875 -2.0625 5.375 C-1.68222656 4.37210938 -1.30195312 3.36921875 -0.91015625 2.3359375 C-0.60980469 1.56507812 -0.30945312 0.79421875 0 0 Z " fill="#EBEEEE" transform="translate(57,50)"/>
<path d="M0 0 C1.5625 1.25 1.5625 1.25 3 3 C2.6875 5.1875 2.6875 5.1875 2 7 C0.35 7.33 -1.3 7.66 -3 8 C-3.08139142 10.39652528 -3.14067009 12.79025436 -3.1875 15.1875 C-3.21263672 15.86103516 -3.23777344 16.53457031 -3.26367188 17.22851562 C-3.32923478 21.70864748 -2.66743649 24.39440999 0 28 C-2.41305361 27.03477856 -3.73987122 26.42475573 -5.1171875 24.17578125 C-7.68990048 17.83506828 -6.26877675 8.26053962 -4 2 C-1.921875 0.68359375 -1.921875 0.68359375 0 0 Z " fill="#615C48" transform="translate(19,47)"/>
<path d="M0 0 C2.5 1.1875 2.5 1.1875 4.5 3.1875 C4.125 5.3125 4.125 5.3125 3.5 7.1875 C1.52 7.5175 -0.46 7.8475 -2.5 8.1875 C-4.0625 6.4375 -4.0625 6.4375 -5.5 4.1875 C-5.3125 2 -5.3125 2 -4.5 0.1875 C-2.5 -0.8125 -2.5 -0.8125 0 0 Z " fill="#AA9515" transform="translate(64.5,67.8125)"/>
<path d="M0 0 C3.63 0.33 7.26 0.66 11 1 C11 2.98 11 4.96 11 7 C7.18634321 7.35475877 5.41557542 7.2619932 2.125 5.1875 C0 3 0 3 0 0 Z " fill="#37210E" transform="translate(22,54)"/>
<path d="M0 0 C0.66 0.33 1.32 0.66 2 1 C1.67 2.98 1.34 4.96 1 7 C-0.65 7 -2.3 7 -4 7 C-4.33 7.99 -4.66 8.98 -5 10 C-6.65 10 -8.3 10 -10 10 C-10.33 9.34 -10.66 8.68 -11 8 C-10.01 7.67 -9.02 7.34 -8 7 C-7.67 6.01 -7.34 5.02 -7 4 C-5.03384339 2.9349985 -3.03273074 1.93166826 -1 1 C-0.67 0.67 -0.34 0.34 0 0 Z " fill="#EAEFEA" transform="translate(40,28)"/>
<path d="M0 0 C1.98 0.66 3.96 1.32 6 2 C4.1875 3.0625 4.1875 3.0625 2 4 C1.01 3.67 0.02 3.34 -1 3 C-0.67 4.65 -0.34 6.3 0 8 C-2.31 8 -4.62 8 -7 8 C-7 6.68 -7 5.36 -7 4 C-6.030625 3.525625 -5.06125 3.05125 -4.0625 2.5625 C-1.19522563 1.29806053 -1.19522563 1.29806053 0 0 Z " fill="#424343" transform="translate(37,23)"/>
<path d="M0 0 C2.625 0.375 2.625 0.375 5 1 C5.625 2.875 5.625 2.875 6 5 C5.34 5.66 4.68 6.32 4 7 C1.375 6.625 1.375 6.625 -1 6 C-1.625 4.125 -1.625 4.125 -2 2 C-1.34 1.34 -0.68 0.68 0 0 Z " fill="#ECECEC" transform="translate(37,49)"/>
<path d="M0 0 C1.32 0.66 2.64 1.32 4 2 C3.01 2.66 2.02 3.32 1 4 C1.62759865 6.92879371 2.58622659 9.36095629 4 12 C1.625 11.6875 1.625 11.6875 -1 11 C-3 8 -3 8 -2.75 5.5 C-2 3 -2 3 0 0 Z " fill="#A3CB8C" transform="translate(59,65)"/>
<path d="M0 0 C2.64 0 5.28 0 8 0 C8.33 0.66 8.66 1.32 9 2 C9.99 2.66 10.98 3.32 12 4 C11.34 4 10.68 4 10 4 C10.66 6.31 11.32 8.62 12 11 C11.01 11 10.02 11 9 11 C7.14223235 7.86501708 6.79859524 5.62528568 7 2 C4.69 1.67 2.38 1.34 0 1 C0 0.67 0 0.34 0 0 Z " fill="#D2D3D1" transform="translate(11,26)"/>
<path d="M0 0 C3.29714793 0.32971479 4.6226839 0.6226839 7 3 C5.3125 4.5625 5.3125 4.5625 3 6 C0.25 5.6875 0.25 5.6875 -2 5 C-2 2 -2 2 0 0 Z " fill="#7D7D7D" transform="translate(47,20)"/>
<path d="M0 0 C0 0.33 0 0.66 0 1 C-1.65 1 -3.3 1 -5 1 C-5 1.66 -5 2.32 -5 3 C-4.34 3 -3.68 3 -3 3 C-3.33 3.66 -3.66 4.32 -4 5 C-5.98 5 -7.96 5 -10 5 C-10.33 5.99 -10.66 6.98 -11 8 C-11.66 7.67 -12.32 7.34 -13 7 C-12.09456528 3.87213459 -11.6185409 2.36081553 -8.75 0.6875 C-5.73422987 -0.06644253 -3.09688972 -0.14404138 0 0 Z " fill="#A4A4A4" transform="translate(26,10)"/>
<path d="M0 0 C1.32 0 2.64 0 4 0 C3.67 2.31 3.34 4.62 3 7 C0.69 6.34 -1.62 5.68 -4 5 C-3.01 4.67 -2.02 4.34 -1 4 C-0.26676204 1.98491642 -0.26676204 1.98491642 0 0 Z " fill="#D4E6CB" transform="translate(36,34)"/>
<path d="M0 0 C1.5625 1.75 1.5625 1.75 3 4 C2.875 6.1875 2.875 6.1875 2 8 C1.01 8.33 0.02 8.66 -1 9 C-1.66 8.34 -2.32 7.68 -3 7 C-2.01 4.69 -1.02 2.38 0 0 Z " fill="#DAF1F3" transform="translate(64,58)"/>
<path d="M0 0 C2.31 0.33 4.62 0.66 7 1 C3.25 2.125 3.25 2.125 1 1 C0.9175 1.78375 0.835 2.5675 0.75 3.375 C0 6 0 6 -2.0625 7.3125 C-2.701875 7.539375 -3.34125 7.76625 -4 8 C-4.33 7.01 -4.66 6.02 -5 5 C-4.67 4.34 -4.34 3.68 -4 3 C-3.01 3 -2.02 3 -1 3 C-0.67 2.01 -0.34 1.02 0 0 Z " fill="#B5F19B" transform="translate(12,40)"/>
<path d="M0 0 C3.63 0.33 7.26 0.66 11 1 C10.67 1.99 10.34 2.98 10 4 C7.36 4 4.72 4 2 4 C1.34 2.68 0.68 1.36 0 0 Z " fill="#444444" transform="translate(7,22)"/>
<path d="M0 0 C2.64465038 3.1254959 3.84414715 6.08788267 5 10 C3.0625 9.1875 3.0625 9.1875 1 8 C0.67 7.01 0.34 6.02 0 5 C-1.65 5 -3.3 5 -5 5 C-4.67 4.34 -4.34 3.68 -4 3 C-2.68 3 -1.36 3 0 3 C0 2.01 0 1.02 0 0 Z " fill="#3B3410" transform="translate(40,42)"/>
<path d="M0 0 C2.18994248 3.28491373 2.35277339 4.83095639 2.625 8.6875 C2.69976562 9.68136719 2.77453125 10.67523438 2.8515625 11.69921875 C2.90054688 12.45847656 2.94953125 13.21773437 3 14 C2.34 14 1.68 14 1 14 C0.66307215 12.39658445 0.33058907 10.79223445 0 9.1875 C-0.185625 8.29417969 -0.37125 7.40085937 -0.5625 6.48046875 C-1 4 -1 4 -1 1 C-0.67 0.67 -0.34 0.34 0 0 Z " fill="#8DD4D0" transform="translate(43,31)"/>
<path d="M0 0 C0.99 0.33 1.98 0.66 3 1 C3.33 3.64 3.66 6.28 4 9 C2.68 9.33 1.36 9.66 0 10 C0.185625 9.46375 0.37125 8.9275 0.5625 8.375 C1.11419324 5.38009386 0.60597444 2.96254171 0 0 Z " fill="#B8F29F" transform="translate(21,30)"/>
<path d="M0 0 C-0.66 1.65 -1.32 3.3 -2 5 C-3.32 4.67 -4.64 4.34 -6 4 C-6 3.34 -6 2.68 -6 2 C-6.99 1.67 -7.98 1.34 -9 1 C-6.04335481 -0.4783226 -3.25770263 -0.06032783 0 0 Z " fill="#7D7D7D" transform="translate(67,21)"/>
<path d="M0 0 C2.64 0 5.28 0 8 0 C8 1.32 8 2.64 8 4 C5.125 3.6875 5.125 3.6875 2 3 C1.34 2.01 0.68 1.02 0 0 Z " fill="#F28150" transform="translate(24,56)"/>
<path d="M0 0 C2.31 1.98 4.62 3.96 7 6 C6.01 7.485 6.01 7.485 5 9 C4.34 7.68 3.68 6.36 3 5 C1.35 5.66 -0.3 6.32 -2 7 C-1.34 4.69 -0.68 2.38 0 0 Z " fill="#D4F2F4" transform="translate(57,50)"/>
<path d="M0 0 C0.66 0.33 1.32 0.66 2 1 C1.67 3.31 1.34 5.62 1 8 C0.01 7.67 -0.98 7.34 -2 7 C-1.125 1.125 -1.125 1.125 0 0 Z " fill="#4C4720" transform="translate(41,34)"/>
<path d="M0 0 C1.32 0 2.64 0 4 0 C4 1.65 4 3.3 4 5 C3.01 5 2.02 5 1 5 C0.67 3.35 0.34 1.7 0 0 Z " fill="#83741F" transform="translate(13,28)"/>
<path d="M0 0 C1.2065625 0.0309375 1.2065625 0.0309375 2.4375 0.0625 C2.4375 0.7225 2.4375 1.3825 2.4375 2.0625 C1.798125 2.18625 1.15875 2.31 0.5 2.4375 C-0.180625 2.64375 -0.86125 2.85 -1.5625 3.0625 C-1.8925 3.7225 -2.2225 4.3825 -2.5625 5.0625 C-3.2225 5.0625 -3.8825 5.0625 -4.5625 5.0625 C-3.43829114 0.08386076 -3.43829114 0.08386076 0 0 Z " fill="#EFC600" transform="translate(29.5625,40.9375)"/>
<path d="M0 0 C0.33 0.66 0.66 1.32 1 2 C1.66 2.33 2.32 2.66 3 3 C-0.26545761 4.88391785 -3.28111761 5.49287967 -7 6 C-7 5.34 -7 4.68 -7 4 C-3.535 3.505 -3.535 3.505 0 3 C0 2.01 0 1.02 0 0 Z " fill="#999999" transform="translate(51,16)"/>
<path d="M0 0 C0.99 0.99 1.98 1.98 3 3 C2.34 4.98 1.68 6.96 1 9 C0.01 9 -0.98 9 -2 9 C-1.34 8.01 -0.68 7.02 0 6 C0.16699232 2.87478167 0.16699232 2.87478167 0 0 Z " fill="#96E8EF" transform="translate(66,59)"/>
<path d="M0 0 C0.66 0.33 1.32 0.66 2 1 C1.67 2.98 1.34 4.96 1 7 C0.01 6.01 -0.98 5.02 -2 4 C-1.34 2.68 -0.68 1.36 0 0 Z " fill="#BCEFF2" transform="translate(40,28)"/>
<path d="M0 0 C1.98 0 3.96 0 6 0 C5.67 0.99 5.34 1.98 5 3 C2.03 2.505 2.03 2.505 -1 2 C-0.67 1.34 -0.34 0.68 0 0 Z " fill="#7F7F7F" transform="translate(41,12)"/>
</svg>
